<svg width="89" height="86" viewBox="0 0 89 86" fill="none" xmlns="http://www.w3.org/2000/svg">
<path d="M51.522 66.5713H69.8406V71.2855H51.522V66.5713ZM51.522 57.1427H78.9998V61.857H51.522V57.1427ZM51.522 47.7141H78.9998V52.4284H51.522V47.7141Z" fill="#FFD700" fill-opacity="0.79"/>
<path d="M54.1226 31.7258L43.7062 10L33.2898 31.7258L10 35.2096L26.8531 52.1221L22.8734 76L39.1266 67.2055V61.8784L28.9574 67.3823L31.3663 52.9189L31.7739 50.4745L30.0497 48.7467L19.8417 38.5002L33.9493 36.3906L36.3307 36.0346L37.3977 33.8119L43.7062 20.6519L50.0147 33.8119L51.0817 36.0346L53.4631 36.3906L70.5315 38.9481L71.1841 34.2786L54.1226 31.7258Z" fill="#FFD700" fill-opacity="0.79"/>
</svg>
