<svg width="71" height="71" viewBox="0 0 71 71" fill="none" xmlns="http://www.w3.org/2000/svg">
<path d="M31.5371 41.1197L24.7587 34.0833C24.4064 33.7164 23.9774 33.5198 23.4717 33.4936C22.9634 33.4674 22.5017 33.6718 22.0865 34.1069C21.684 34.5262 21.4827 34.99 21.4827 35.4984C21.4827 36.0068 21.684 36.4707 22.0865 36.89L29.4009 44.5081C30.0123 45.1423 30.7244 45.4594 31.5371 45.4594C32.3498 45.4594 33.0619 45.1423 33.6733 44.5081L48.9135 28.635C49.2808 28.2524 49.4733 27.8016 49.4909 27.2828C49.5085 26.7613 49.316 26.2843 48.9135 25.8519C48.4983 25.4195 48.0492 25.1994 47.5661 25.1915C47.083 25.1836 46.6351 25.3959 46.2225 25.8283L31.5371 41.1197ZM22.932 69.3673L17.9651 60.7193L8.60137 58.6595C7.85157 58.5153 7.25399 58.096 6.80863 57.4016C6.36328 56.7097 6.1796 55.9733 6.2576 55.1924L7.15208 45.1449L0.800127 37.5975C0.266709 37.0289 0 36.3292 0 35.4984C0 34.6677 0.266709 33.968 0.800127 33.3993L7.15208 25.8519L6.2576 15.8084C6.18212 15.0248 6.36579 14.2871 6.80863 13.5953C7.25399 12.9034 7.85157 12.4841 8.60137 12.3374L17.9614 10.2815L22.9282 1.63343C23.3358 0.931102 23.8831 0.446288 24.57 0.178984C25.2569 -0.09094 25.9677 -0.0555618 26.7024 0.285119L35.5 4.15709L44.2939 0.285119C45.0311 -0.0555618 45.7431 -0.09094 46.43 0.178984C47.1169 0.446288 47.6642 0.931102 48.0718 1.63343L53.0349 10.2815L62.3986 12.3374C63.1484 12.4841 63.746 12.9034 64.1914 13.5953C64.6367 14.2871 64.8204 15.0248 64.7424 15.8084L63.8517 25.8519L70.1999 33.3993C70.7333 33.968 71 34.6677 71 35.4984C71 36.3292 70.7333 37.0302 70.1999 37.6015L63.8517 45.1449L64.7424 55.1885C64.8179 55.972 64.6342 56.7097 64.1914 57.4016C63.746 58.096 63.1484 58.5153 62.3986 58.6595L53.0386 60.7193L48.0718 69.3673C47.6642 70.067 47.1169 70.5519 46.43 70.8218C45.7431 71.0917 45.0323 71.055 44.2976 70.7117L35.5 66.8398L26.7061 70.7117C25.9689 71.0524 25.2569 71.0878 24.57 70.8179C23.8831 70.5506 23.3358 70.0657 22.9282 69.3634M25.8758 66.7493L35.5 62.5786L45.1695 66.7493L50.5967 57.3151L60.9758 54.9133L60.0322 43.7534L67.0145 35.4984L60.0322 27.2002L60.9758 16.0403L50.5967 13.6817L45.1242 4.2475L35.5 8.42215L25.8343 4.2475L20.4033 13.6817L10.0242 16.0403L10.9678 27.2002L3.98554 35.4984L10.9678 43.7534L10.0242 54.9565L20.4033 57.3151L25.8758 66.7493Z" fill="#FFD700" fill-opacity="0.79"/>
</svg>
